<?xml version="1.0" encoding="UTF-8"?>
<svg xmlns="http://www.w3.org/2000/svg" version="1.1" viewBox="0 0 1000 1000">
  <defs>
    <style>
      .cls-1 {
        fill: #620d0d;
      }

      .cls-2 {
        fill: #d0d1aa;
      }

      .cls-3 {
        display: none;
      }
    </style>
  </defs>
  <!-- Generator: Adobe Illustrator 28.7.1, SVG Export Plug-In . SVG Version: 1.2.0 Build 142)  -->
  <g>
    <g id="Layer_1">
      <g class="cls-3">
        <polygon points="961.6 204.15 875 54.15 788.4 204.15 961.6 204.15"/>
      </g>
      <g class="cls-3">
        <polygon points="86.84 462.09 418 461.04 417 271.48 86.84 462.09"/>
      </g>
      <g class="cls-3">
        <polygon points="961.59 215.88 874.99 365.88 788.39 215.88 961.59 215.88"/>
      </g>
      <g class="cls-3">
        <polygon points="417.16 257.85 86 258.9 87 448.47 417.16 257.85"/>
      </g>
      <g class="cls-3">
        <polygon class="cls-2" points="211.95 676.33 916 674.1 913.87 271.08 211.95 676.33"/>
        <polygon class="cls-2" points="773.05 306.44 69 308.67 71.13 711.69 773.05 306.44"/>
      </g>
      <g class="cls-3">
        <polygon points="637.46 221 613.42 179.36 589.38 221 637.46 221"/>
        <polygon points="645.11 124.46 618.91 169.85 648.44 221 700.85 221 645.11 124.46"/>
        <polygon points="613.42 160.35 639.63 114.96 614.25 71 588.04 116.39 613.42 160.35"/>
        <polygon points="607.93 169.85 582.55 125.89 527.64 221 578.4 221 607.93 169.85"/>
      </g>
      <g class="cls-3">
        <polygon points="424.61 519.95 202.83 648 498 647.06 424.61 519.95"/>
      </g>
      <g class="cls-3">
        <polygon points="91.31 530.28 164.74 657.48 386.68 529.34 91.31 530.28"/>
      </g>
      <polygon class="cls-3" points="653.7 457.04 717.09 457.04 750 447.25 717.09 437.47 653.7 437.47 708.6 405.77 732.21 380.85 698.82 388.83 643.92 420.53 675.62 365.63 683.6 332.24 658.67 355.84 626.98 410.74 626.98 347.35 617.19 314.44 607.41 347.35 607.41 410.74 575.71 355.84 550.79 332.24 558.77 365.63 590.47 420.53 535.57 388.83 502.18 380.85 525.78 405.77 580.68 437.47 517.29 437.47 484.38 447.25 517.29 457.04 580.68 457.04 525.78 488.73 502.18 513.66 535.57 505.68 590.47 473.98 558.77 528.88 550.79 562.27 575.71 538.66 607.41 483.76 607.41 547.15 617.19 580.06 626.98 547.15 626.98 483.76 658.67 538.66 683.6 562.27 675.62 528.88 643.92 473.98 698.82 505.68 732.21 513.66 708.6 488.73 653.7 457.04"/>
      <g>
        <path class="cls-1" d="M694.3,281.86l-626.3,1.99,2.29,434.29,641.74-370.51c31.28-18.06,18.38-65.88-17.73-65.77Z"/>
        <path class="cls-1" d="M305.7,718.14l626.3-1.99-2.29-434.29-641.74,370.51c-31.28,18.06-18.38,65.88,17.73,65.77Z"/>
      </g>
    </g>
  </g>
</svg>